<?xml version="1.0" encoding="UTF-8" standalone="no"?>
<!DOCTYPE svg PUBLIC "-//W3C//DTD SVG 1.1//EN"
 "http://www.w3.org/Graphics/SVG/1.1/DTD/svg11.dtd">
<!-- Generated by graphviz version 2.44.0 (20200408.0750)
 -->
<!-- Pages: 1 -->
<svg width="795pt" height="620pt"
 viewBox="0.00 0.00 795.00 620.00" xmlns="http://www.w3.org/2000/svg" xmlns:xlink="http://www.w3.org/1999/xlink">
<g id="graph0" class="graph" transform="scale(1 1) rotate(0) translate(4 616)">
<polygon fill="white" stroke="transparent" points="-4,4 -4,-616 791,-616 791,4 -4,4"/>
<!-- [root] aws_eip.nat_gw_eip -->
<g id="node1" class="node">
<title>[root] aws_eip.nat_gw_eip</title>
<polygon fill="none" stroke="black" points="273,-180 145,-180 145,-144 273,-144 273,-180"/>
<text text-anchor="middle" x="209" y="-158.3" font-family="Times,serif" font-size="14.00">aws_eip.nat_gw_eip</text>
</g>
<!-- [root] provider.aws -->
<g id="node12" class="node">
<title>[root] provider.aws</title>
<polygon fill="none" stroke="black" points="278,-108 198.9,-90 278,-72 357.1,-90 278,-108"/>
<text text-anchor="middle" x="278" y="-86.3" font-family="Times,serif" font-size="14.00">provider.aws</text>
</g>
<!-- [root] aws_eip.nat_gw_eip&#45;&gt;[root] provider.aws -->
<g id="edge1" class="edge">
<title>[root] aws_eip.nat_gw_eip&#45;&gt;[root] provider.aws</title>
<path fill="none" stroke="black" d="M226.06,-143.7C235.34,-134.28 246.92,-122.53 256.78,-112.53"/>
<polygon fill="black" stroke="black" points="259.4,-114.86 263.93,-105.28 254.41,-109.94 259.4,-114.86"/>
</g>
<!-- [root] aws_internet_gateway.igw_test -->
<g id="node2" class="node">
<title>[root] aws_internet_gateway.igw_test</title>
<polygon fill="none" stroke="black" points="787,-324 601,-324 601,-288 787,-288 787,-324"/>
<text text-anchor="middle" x="694" y="-302.3" font-family="Times,serif" font-size="14.00">aws_internet_gateway.igw_test</text>
</g>
<!-- [root] aws_vpc.vpc_test -->
<g id="node11" class="node">
<title>[root] aws_vpc.vpc_test</title>
<polygon fill="none" stroke="black" points="442.5,-180 329.5,-180 329.5,-144 442.5,-144 442.5,-180"/>
<text text-anchor="middle" x="386" y="-158.3" font-family="Times,serif" font-size="14.00">aws_vpc.vpc_test</text>
</g>
<!-- [root] aws_internet_gateway.igw_test&#45;&gt;[root] aws_vpc.vpc_test -->
<g id="edge2" class="edge">
<title>[root] aws_internet_gateway.igw_test&#45;&gt;[root] aws_vpc.vpc_test</title>
<path fill="none" stroke="black" d="M656.85,-287.87C600.66,-261.96 494.11,-212.84 432.73,-184.55"/>
<polygon fill="black" stroke="black" points="433.83,-181.2 423.28,-180.19 430.9,-187.55 433.83,-181.2"/>
</g>
<!-- [root] aws_nat_gateway.gw -->
<g id="node3" class="node">
<title>[root] aws_nat_gateway.gw</title>
<polygon fill="none" stroke="black" points="236,-324 104,-324 104,-288 236,-288 236,-324"/>
<text text-anchor="middle" x="170" y="-302.3" font-family="Times,serif" font-size="14.00">aws_nat_gateway.gw</text>
</g>
<!-- [root] aws_nat_gateway.gw&#45;&gt;[root] aws_eip.nat_gw_eip -->
<g id="edge3" class="edge">
<title>[root] aws_nat_gateway.gw&#45;&gt;[root] aws_eip.nat_gw_eip</title>
<path fill="none" stroke="black" d="M172.89,-287.75C176.1,-269.68 181.79,-240.56 189,-216 191.52,-207.41 194.78,-198.23 197.93,-189.97"/>
<polygon fill="black" stroke="black" points="201.27,-191.03 201.66,-180.44 194.75,-188.48 201.27,-191.03"/>
</g>
<!-- [root] aws_subnet.subnet_public -->
<g id="node10" class="node">
<title>[root] aws_subnet.subnet_public</title>
<polygon fill="none" stroke="black" points="357.5,-252 198.5,-252 198.5,-216 357.5,-216 357.5,-252"/>
<text text-anchor="middle" x="278" y="-230.3" font-family="Times,serif" font-size="14.00">aws_subnet.subnet_public</text>
</g>
<!-- [root] aws_nat_gateway.gw&#45;&gt;[root] aws_subnet.subnet_public -->
<g id="edge4" class="edge">
<title>[root] aws_nat_gateway.gw&#45;&gt;[root] aws_subnet.subnet_public</title>
<path fill="none" stroke="black" d="M196.42,-287.88C210.41,-278.81 227.78,-267.55 242.89,-257.76"/>
<polygon fill="black" stroke="black" points="244.99,-260.57 251.48,-252.19 241.18,-254.69 244.99,-260.57"/>
</g>
<!-- [root] aws_route.internet_access -->
<g id="node4" class="node">
<title>[root] aws_route.internet_access</title>
<polygon fill="none" stroke="black" points="780,-468 622,-468 622,-432 780,-432 780,-468"/>
<text text-anchor="middle" x="701" y="-446.3" font-family="Times,serif" font-size="14.00">aws_route.internet_access</text>
</g>
<!-- [root] aws_route.internet_access&#45;&gt;[root] aws_internet_gateway.igw_test -->
<g id="edge5" class="edge">
<title>[root] aws_route.internet_access&#45;&gt;[root] aws_internet_gateway.igw_test</title>
<path fill="none" stroke="black" d="M700.16,-431.87C698.96,-407.67 696.77,-363.21 695.35,-334.39"/>
<polygon fill="black" stroke="black" points="698.84,-334 694.85,-324.19 691.84,-334.35 698.84,-334"/>
</g>
<!-- [root] aws_route_table.my_vpc_private -->
<g id="node5" class="node">
<title>[root] aws_route_table.my_vpc_private</title>
<polygon fill="none" stroke="black" points="484.5,-396 287.5,-396 287.5,-360 484.5,-360 484.5,-396"/>
<text text-anchor="middle" x="386" y="-374.3" font-family="Times,serif" font-size="14.00">aws_route_table.my_vpc_private</text>
</g>
<!-- [root] aws_route_table.my_vpc_private&#45;&gt;[root] aws_vpc.vpc_test -->
<g id="edge6" class="edge">
<title>[root] aws_route_table.my_vpc_private&#45;&gt;[root] aws_vpc.vpc_test</title>
<path fill="none" stroke="black" d="M386,-359.85C386,-322.83 386,-235.18 386,-190.39"/>
<polygon fill="black" stroke="black" points="389.5,-190.23 386,-180.23 382.5,-190.23 389.5,-190.23"/>
</g>
<!-- [root] aws_route_table.my_vpc_us_east_1a_nated -->
<g id="node6" class="node">
<title>[root] aws_route_table.my_vpc_us_east_1a_nated</title>
<polygon fill="none" stroke="black" points="268.5,-396 13.5,-396 13.5,-360 268.5,-360 268.5,-396"/>
<text text-anchor="middle" x="141" y="-374.3" font-family="Times,serif" font-size="14.00">aws_route_table.my_vpc_us_east_1a_nated</text>
</g>
<!-- [root] aws_route_table.my_vpc_us_east_1a_nated&#45;&gt;[root] aws_nat_gateway.gw -->
<g id="edge7" class="edge">
<title>[root] aws_route_table.my_vpc_us_east_1a_nated&#45;&gt;[root] aws_nat_gateway.gw</title>
<path fill="none" stroke="black" d="M148.17,-359.7C151.43,-351.81 155.37,-342.3 159,-333.55"/>
<polygon fill="black" stroke="black" points="162.32,-334.68 162.91,-324.1 155.85,-332 162.32,-334.68"/>
</g>
<!-- [root] aws_route_table_association.my_vpc_nated -->
<g id="node7" class="node">
<title>[root] aws_route_table_association.my_vpc_nated</title>
<polygon fill="none" stroke="black" points="256,-468 0,-468 0,-432 256,-432 256,-468"/>
<text text-anchor="middle" x="128" y="-446.3" font-family="Times,serif" font-size="14.00">aws_route_table_association.my_vpc_nated</text>
</g>
<!-- [root] aws_route_table_association.my_vpc_nated&#45;&gt;[root] aws_route_table.my_vpc_us_east_1a_nated -->
<g id="edge8" class="edge">
<title>[root] aws_route_table_association.my_vpc_nated&#45;&gt;[root] aws_route_table.my_vpc_us_east_1a_nated</title>
<path fill="none" stroke="black" d="M131.21,-431.7C132.65,-423.98 134.37,-414.71 135.96,-406.11"/>
<polygon fill="black" stroke="black" points="139.44,-406.58 137.82,-396.1 132.56,-405.3 139.44,-406.58"/>
</g>
<!-- [root] aws_route_table_association.my_vpc_us_east_1a_private -->
<g id="node8" class="node">
<title>[root] aws_route_table_association.my_vpc_us_east_1a_private</title>
<polygon fill="none" stroke="black" points="604,-468 274,-468 274,-432 604,-432 604,-468"/>
<text text-anchor="middle" x="439" y="-446.3" font-family="Times,serif" font-size="14.00">aws_route_table_association.my_vpc_us_east_1a_private</text>
</g>
<!-- [root] aws_route_table_association.my_vpc_us_east_1a_private&#45;&gt;[root] aws_route_table.my_vpc_private -->
<g id="edge9" class="edge">
<title>[root] aws_route_table_association.my_vpc_us_east_1a_private&#45;&gt;[root] aws_route_table.my_vpc_private</title>
<path fill="none" stroke="black" d="M425.9,-431.7C419.61,-423.39 411.95,-413.28 405.04,-404.14"/>
<polygon fill="black" stroke="black" points="407.78,-401.96 398.95,-396.1 402.2,-406.19 407.78,-401.96"/>
</g>
<!-- [root] aws_subnet.subnet_private -->
<g id="node9" class="node">
<title>[root] aws_subnet.subnet_private</title>
<polygon fill="none" stroke="black" points="580.5,-324 417.5,-324 417.5,-288 580.5,-288 580.5,-324"/>
<text text-anchor="middle" x="499" y="-302.3" font-family="Times,serif" font-size="14.00">aws_subnet.subnet_private</text>
</g>
<!-- [root] aws_route_table_association.my_vpc_us_east_1a_private&#45;&gt;[root] aws_subnet.subnet_private -->
<g id="edge10" class="edge">
<title>[root] aws_route_table_association.my_vpc_us_east_1a_private&#45;&gt;[root] aws_subnet.subnet_private</title>
<path fill="none" stroke="black" d="M463.23,-431.91C474.34,-422.65 486.47,-410.2 493,-396 501.87,-376.71 502.96,-352.56 502.06,-334.28"/>
<polygon fill="black" stroke="black" points="505.55,-334.01 501.34,-324.28 498.57,-334.51 505.55,-334.01"/>
</g>
<!-- [root] aws_subnet.subnet_private&#45;&gt;[root] aws_vpc.vpc_test -->
<g id="edge11" class="edge">
<title>[root] aws_subnet.subnet_private&#45;&gt;[root] aws_vpc.vpc_test</title>
<path fill="none" stroke="black" d="M485.37,-287.87C465.6,-263.03 428.85,-216.85 406.01,-188.14"/>
<polygon fill="black" stroke="black" points="408.64,-185.83 399.68,-180.19 403.17,-190.19 408.64,-185.83"/>
</g>
<!-- [root] aws_subnet.subnet_public&#45;&gt;[root] aws_vpc.vpc_test -->
<g id="edge12" class="edge">
<title>[root] aws_subnet.subnet_public&#45;&gt;[root] aws_vpc.vpc_test</title>
<path fill="none" stroke="black" d="M304.42,-215.88C318.41,-206.81 335.78,-195.55 350.89,-185.76"/>
<polygon fill="black" stroke="black" points="352.99,-188.57 359.48,-180.19 349.18,-182.69 352.99,-188.57"/>
</g>
<!-- [root] aws_vpc.vpc_test&#45;&gt;[root] provider.aws -->
<g id="edge13" class="edge">
<title>[root] aws_vpc.vpc_test&#45;&gt;[root] provider.aws</title>
<path fill="none" stroke="black" d="M359.58,-143.88C343.46,-133.43 322.85,-120.07 306.38,-109.39"/>
<polygon fill="black" stroke="black" points="308.01,-106.28 297.71,-103.78 304.2,-112.15 308.01,-106.28"/>
</g>
<!-- [root] var.aws_region -->
<g id="node13" class="node">
<title>[root] var.aws_region</title>
<polygon fill="none" stroke="black" points="321.5,-36 228.5,-36 228.5,0 327.5,0 327.5,-30 321.5,-36"/>
<polyline fill="none" stroke="black" points="321.5,-36 321.5,-30 "/>
<polyline fill="none" stroke="black" points="327.5,-30 321.5,-30 "/>
<text text-anchor="middle" x="278" y="-14.3" font-family="Times,serif" font-size="14.00">var.aws_region</text>
</g>
<!-- [root] provider.aws&#45;&gt;[root] var.aws_region -->
<g id="edge20" class="edge">
<title>[root] provider.aws&#45;&gt;[root] var.aws_region</title>
<path fill="none" stroke="black" d="M278,-71.7C278,-63.98 278,-54.71 278,-46.11"/>
<polygon fill="black" stroke="black" points="281.5,-46.1 278,-36.1 274.5,-46.1 281.5,-46.1"/>
</g>
<!-- [root] meta.count&#45;boundary (EachMode fixup) -->
<g id="node14" class="node">
<title>[root] meta.count&#45;boundary (EachMode fixup)</title>
<ellipse fill="none" stroke="black" cx="271" cy="-522" rx="176.27" ry="18"/>
<text text-anchor="middle" x="271" y="-518.3" font-family="Times,serif" font-size="14.00">[root] meta.count&#45;boundary (EachMode fixup)</text>
</g>
<!-- [root] meta.count&#45;boundary (EachMode fixup)&#45;&gt;[root] aws_route.internet_access -->
<g id="edge14" class="edge">
<title>[root] meta.count&#45;boundary (EachMode fixup)&#45;&gt;[root] aws_route.internet_access</title>
<path fill="none" stroke="black" d="M368.08,-506.93C434.15,-497.13 523.82,-483.38 611.97,-468.15"/>
<polygon fill="black" stroke="black" points="612.62,-471.59 621.87,-466.43 611.42,-464.69 612.62,-471.59"/>
</g>
<!-- [root] meta.count&#45;boundary (EachMode fixup)&#45;&gt;[root] aws_route_table_association.my_vpc_nated -->
<g id="edge15" class="edge">
<title>[root] meta.count&#45;boundary (EachMode fixup)&#45;&gt;[root] aws_route_table_association.my_vpc_nated</title>
<path fill="none" stroke="black" d="M236.75,-504.23C217.4,-494.76 193.01,-482.82 172.23,-472.65"/>
<polygon fill="black" stroke="black" points="173.49,-469.37 162.97,-468.12 170.41,-475.66 173.49,-469.37"/>
</g>
<!-- [root] meta.count&#45;boundary (EachMode fixup)&#45;&gt;[root] aws_route_table_association.my_vpc_us_east_1a_private -->
<g id="edge16" class="edge">
<title>[root] meta.count&#45;boundary (EachMode fixup)&#45;&gt;[root] aws_route_table_association.my_vpc_us_east_1a_private</title>
<path fill="none" stroke="black" d="M310.81,-504.41C334.13,-494.7 363.8,-482.33 388.72,-471.95"/>
<polygon fill="black" stroke="black" points="390.13,-475.16 398.01,-468.08 387.43,-468.69 390.13,-475.16"/>
</g>
<!-- [root] provider.aws (close) -->
<g id="node15" class="node">
<title>[root] provider.aws (close)</title>
<ellipse fill="none" stroke="black" cx="570" cy="-522" rx="104.78" ry="18"/>
<text text-anchor="middle" x="570" y="-518.3" font-family="Times,serif" font-size="14.00">[root] provider.aws (close)</text>
</g>
<!-- [root] provider.aws (close)&#45;&gt;[root] aws_route.internet_access -->
<g id="edge17" class="edge">
<title>[root] provider.aws (close)&#45;&gt;[root] aws_route.internet_access</title>
<path fill="none" stroke="black" d="M600.38,-504.76C618.13,-495.28 640.76,-483.19 660.07,-472.87"/>
<polygon fill="black" stroke="black" points="661.78,-475.92 668.95,-468.12 658.48,-469.75 661.78,-475.92"/>
</g>
<!-- [root] provider.aws (close)&#45;&gt;[root] aws_route_table_association.my_vpc_nated -->
<g id="edge18" class="edge">
<title>[root] provider.aws (close)&#45;&gt;[root] aws_route_table_association.my_vpc_nated</title>
<path fill="none" stroke="black" d="M495.52,-509.2C427.22,-498.39 324.93,-482.19 245.59,-469.62"/>
<polygon fill="black" stroke="black" points="245.97,-466.14 235.54,-468.03 244.87,-473.05 245.97,-466.14"/>
</g>
<!-- [root] provider.aws (close)&#45;&gt;[root] aws_route_table_association.my_vpc_us_east_1a_private -->
<g id="edge19" class="edge">
<title>[root] provider.aws (close)&#45;&gt;[root] aws_route_table_association.my_vpc_us_east_1a_private</title>
<path fill="none" stroke="black" d="M539.62,-504.76C521.87,-495.28 499.24,-483.19 479.93,-472.87"/>
<polygon fill="black" stroke="black" points="481.52,-469.75 471.05,-468.12 478.22,-475.92 481.52,-469.75"/>
</g>
<!-- [root] root -->
<g id="node16" class="node">
<title>[root] root</title>
<ellipse fill="none" stroke="black" cx="420" cy="-594" rx="47.39" ry="18"/>
<text text-anchor="middle" x="420" y="-590.3" font-family="Times,serif" font-size="14.00">[root] root</text>
</g>
<!-- [root] root&#45;&gt;[root] meta.count&#45;boundary (EachMode fixup) -->
<g id="edge21" class="edge">
<title>[root] root&#45;&gt;[root] meta.count&#45;boundary (EachMode fixup)</title>
<path fill="none" stroke="black" d="M391.27,-579.5C369.83,-569.43 340.12,-555.47 315.59,-543.95"/>
<polygon fill="black" stroke="black" points="317.02,-540.75 306.48,-539.67 314.04,-547.09 317.02,-540.75"/>
</g>
<!-- [root] root&#45;&gt;[root] provider.aws (close) -->
<g id="edge22" class="edge">
<title>[root] root&#45;&gt;[root] provider.aws (close)</title>
<path fill="none" stroke="black" d="M448.92,-579.5C470.89,-569.25 501.47,-554.98 526.4,-543.35"/>
<polygon fill="black" stroke="black" points="528.06,-546.43 535.65,-539.03 525.1,-540.09 528.06,-546.43"/>
</g>
</g>
</svg>
